<svg id="kity_svg_6" xmlns="http://www.w3.org/2000/svg" xmlns:xlink="http://www.w3.org/1999/xlink" version="1.1" width="2324" height="880" style="display: inline; background: rgb(251, 251, 251);" viewBox="0 0 2324 880"><defs id="kity_defs_7"><linearGradient id="kity_linearGradient_17" x1="0" y1="0" x2="0" y2="1"><stop id="kity_stop_18" offset="0" stop-color="rgb(255, 255, 255)"></stop><stop id="kity_stop_19" offset="1" stop-color="rgb(204, 204, 204)"></stop></linearGradient><marker id="kity_marker_2" orient="auto" refX="6" refY="0" viewBox="-7 -7 14 14" markerWidth="7" markerHeight="7" markerUnits="userSpaceOnUse"><path id="kity_path_3" fill="rgb(115, 161, 191)" stroke="none" d="M6,0A6,6,0,1,1,-6,0A6,6,0,1,1,6,0"></path></marker></defs><g id="kity_g_8"><g id="minder1" text-rendering="optimize-speed"><g id="minder_connect_group1"><path id="kity_path_31" fill="none" stroke="rgb(115, 161, 191)" stroke-width="1" d="M1300,414.5A258.5,227,0,0,1,1558.5,187.5"></path><path id="kity_path_33" fill="none" stroke="rgb(115, 161, 191)" stroke-width="1" d="M1799.5,187.5C1814.5,187.5,1814.5,45.5,1829.5,45.5L1936.5,45.5"></path><path id="kity_path_35" fill="none" stroke="rgb(115, 161, 191)" stroke-width="1" d="M1799.5,187.5C1814.5,187.5,1814.5,97.5,1829.5,97.5L1925.5,97.5"></path><path id="kity_path_37" fill="none" stroke="rgb(115, 161, 191)" stroke-width="1" d="M1799.5,187.5C1814.5,187.5,1814.5,149.5,1829.5,149.5L1912.5,149.5"></path><path id="kity_path_39" fill="none" stroke="rgb(115, 161, 191)" stroke-width="1" d="M1799.5,187.5C1814.5,187.5,1814.5,201.5,1829.5,201.5L1914.5,201.5"></path><path id="kity_path_41" fill="none" stroke="rgb(115, 161, 191)" stroke-width="1" d="M1799.5,187.5C1814.5,187.5,1814.5,279.5,1829.5,279.5L1962.5,279.5"></path><path id="kity_path_43" fill="none" stroke="rgb(115, 161, 191)" stroke-width="1" d="M1962.5,279.5C1977.5,279.5,1977.5,253.5,1992.5,253.5L2167.5,253.5"></path><path id="kity_path_45" fill="none" stroke="rgb(115, 161, 191)" stroke-width="1" d="M1962.5,279.5C1977.5,279.5,1977.5,305.5,1992.5,305.5L2080.5,305.5"></path><path id="kity_path_47" fill="none" stroke="rgb(115, 161, 191)" stroke-width="1" d="M1799.5,187.5C1814.5,187.5,1814.5,357.5,1829.5,357.5L1907.5,357.5"></path><path id="kity_path_49" fill="none" stroke="rgb(115, 161, 191)" stroke-width="1" d="M1300,414.5A258.5,17,0,0,0,1558.5,431.5"></path><path id="kity_path_51" fill="none" stroke="rgb(115, 161, 191)" stroke-width="1" d="M1689.5,431.5C1704.5,431.5,1704.5,419.5,1719.5,419.5L1797.5,419.5"></path><path id="kity_path_53" fill="none" stroke="rgb(115, 161, 191)" stroke-width="1" d="M1689.5,431.5C1704.5,431.5,1704.5,471.5,1719.5,471.5L2009.5,471.5"></path><path id="kity_path_55" fill="none" stroke="rgb(115, 161, 191)" stroke-width="1" d="M1300,414.5A258.5,107,0,0,0,1558.5,521.5"></path><path id="kity_path_57" fill="none" stroke="rgb(115, 161, 191)" stroke-width="1" d="M1697.5,521.5C1712.5,521.5,1712.5,535.5,1727.5,535.5L2110.5,535.5"></path><path id="kity_path_59" fill="none" stroke="rgb(115, 161, 191)" stroke-width="1" d="M1300,414.5A258.5,227,0,0,0,1558.5,641.5"></path><path id="kity_path_61" fill="none" stroke="rgb(115, 161, 191)" stroke-width="1" d="M1632.5,641.5C1647.5,641.5,1647.5,600.5,1662.5,600.5L1747.5,600.5"></path><path id="kity_path_63" fill="none" stroke="rgb(115, 161, 191)" stroke-width="1" d="M1632.5,641.5C1647.5,641.5,1647.5,710.5,1662.5,710.5L1767.5,710.5"></path><path id="kity_path_65" fill="none" stroke="rgb(115, 161, 191)" stroke-width="1" d="M1767.5,710.5C1782.5,710.5,1782.5,652.5,1797.5,652.5L1872.5,652.5"></path><path id="kity_path_67" fill="none" stroke="rgb(115, 161, 191)" stroke-width="1" d="M1767.5,710.5C1782.5,710.5,1782.5,769.5,1797.5,769.5L1857.5,769.5"></path><path id="kity_path_69" fill="none" stroke="rgb(115, 161, 191)" stroke-width="1" d="M1857.5,769.5C1872.5,769.5,1872.5,704.5,1887.5,704.5L2044.5,704.5"></path><path id="kity_path_71" fill="none" stroke="rgb(115, 161, 191)" stroke-width="1" d="M1857.5,769.5C1872.5,769.5,1872.5,756.5,1887.5,756.5L2135.5,756.5"></path><path id="kity_path_73" fill="none" stroke="rgb(115, 161, 191)" stroke-width="1" d="M1857.5,769.5C1872.5,769.5,1872.5,834.5,1887.5,834.5L2126.5,834.5"></path><path id="kity_path_75" fill="none" stroke="rgb(115, 161, 191)" stroke-width="1" d="M2126.5,834.5C2141.5,834.5,2141.5,808.5,2156.5,808.5L2279.5,808.5"></path><path id="kity_path_77" fill="none" stroke="rgb(115, 161, 191)" stroke-width="1" d="M2126.5,834.5C2141.5,834.5,2141.5,860.5,2156.5,860.5L2304.5,860.5"></path><path id="kity_path_79" fill="none" stroke="rgb(115, 161, 191)" stroke-width="1" d="M1300,414.5A258.5,199,0,0,0,1041.5,215.5"></path><path id="kity_path_81" fill="none" stroke="rgb(115, 161, 191)" stroke-width="1" d="M923.5,215.5C908.5,215.5,908.5,229.5,893.5,229.5L738.5,229.5"></path><path id="kity_path_83" fill="none" stroke="rgb(115, 161, 191)" stroke-width="1" d="M738.5,229.5C723.5,229.5,723.5,99.5,708.5,99.5L633.5,99.5"></path><path id="kity_path_85" fill="none" stroke="rgb(115, 161, 191)" stroke-width="1" d="M738.5,229.5C723.5,229.5,723.5,203.5,708.5,203.5L623.5,203.5"></path><path id="kity_path_87" fill="none" stroke="rgb(115, 161, 191)" stroke-width="1" d="M623.5,203.5C608.5,203.5,608.5,151.5,593.5,151.5L468.5,151.5"></path><path id="kity_path_89" fill="none" stroke="rgb(115, 161, 191)" stroke-width="1" d="M623.5,203.5C608.5,203.5,608.5,203.5,593.5,203.5L421.5,203.5"></path><path id="kity_path_91" fill="none" stroke="rgb(115, 161, 191)" stroke-width="1" d="M623.5,203.5C608.5,203.5,608.5,255.5,593.5,255.5L441.5,255.5"></path><path id="kity_path_93" fill="none" stroke="rgb(115, 161, 191)" stroke-width="1" d="M738.5,229.5C723.5,229.5,723.5,307.5,708.5,307.5L599.5,307.5"></path><path id="kity_path_95" fill="none" stroke="rgb(115, 161, 191)" stroke-width="1" d="M738.5,229.5C723.5,229.5,723.5,359.5,708.5,359.5L620.5,359.5"></path><path id="kity_path_97" fill="none" stroke="rgb(115, 161, 191)" stroke-width="1" d="M1300,414.5A258.5,19,0,0,1,1041.5,433.5"></path><path id="kity_path_99" fill="none" stroke="rgb(115, 161, 191)" stroke-width="1" d="M921.5,433.5C906.5,433.5,906.5,421.5,891.5,421.5L613.5,421.5"></path><path id="kity_path_101" fill="none" stroke="rgb(115, 161, 191)" stroke-width="1" d="M613.5,421.5C598.5,421.5,598.5,421.5,583.5,421.5L143.5,421.5"></path><path id="kity_path_103" fill="none" stroke="rgb(115, 161, 191)" stroke-width="1" d="M921.5,433.5C906.5,433.5,906.5,473.5,891.5,473.5L711.5,473.5"></path><path id="kity_path_105" fill="none" stroke="rgb(115, 161, 191)" stroke-width="1" d="M711.5,473.5C696.5,473.5,696.5,473.5,681.5,473.5L20.5,473.5"></path><path id="kity_path_107" fill="none" stroke="rgb(115, 161, 191)" stroke-width="1" d="M1300,414.5A258.5,109,0,0,1,1041.5,523.5"></path><path id="kity_path_109" fill="none" stroke="rgb(115, 161, 191)" stroke-width="1" d="M867.5,523.5C852.5,523.5,852.5,537.5,837.5,537.5L614.5,537.5"></path><path id="kity_path_111" fill="none" stroke="rgb(115, 161, 191)" stroke-width="1" d="M1300,414.5A258.5,199,0,0,1,1041.5,613.5"></path><path id="kity_path_113" fill="none" stroke="rgb(115, 161, 191)" stroke-width="1" d="M942.5,613.5C927.5,613.5,927.5,601.5,912.5,601.5L778.5,601.5"></path><path id="kity_path_115" fill="none" stroke="rgb(115, 161, 191)" stroke-width="1" d="M942.5,613.5C927.5,613.5,927.5,653.5,912.5,653.5L710.5,653.5"></path></g><g id="minder_node1"><path id="node_outline1" fill="rgb(115, 161, 191)" stroke="rgb(57, 80, 96)" d="M1164.5,394.5h271a5,5,0,0,1,5,5v30a5,5,0,0,1,-5,5h-271a5,5,0,0,1,-5,-5v-30a5,5,0,0,1,5,-5z" stroke-width="3"></path><g id="node_text1" fill="white"><text id="kity_text_22" text-rendering="inherit" font-size="16" dy=".8em" y="406.5" x="1183.5">PBI: DoR (Defination of Ready)</text></g></g><g id="kity_g_12"><path id="kity_path_13" fill="none" stroke="none" d="M1183.5,414.5h0v0h0z"></path></g><g id="kity_g_14"><path id="kity_path_15" fill="none" stroke="none" d="M1183.5,414.5h0v0h0z"></path><path id="kity_path_16" fill="none" stroke="none"></path></g><g id="minder_node2"><g id="node_expander9" style="cursor: pointer;"><path id="kity_path_270" fill="white" stroke="gray" d="M1559.5,187.5A6,6,0,1,1,1547.5,187.5A6,6,0,1,1,1559.5,187.5"></path><path id="kity_path_271" fill="none" stroke="gray" d="M1549,187.5L1558,187.5"></path></g><path id="node_outline10" fill="rgb(238, 243, 246)" stroke="rgb(115, 161, 191)" d="M1563.5,174.5h233a3,3,0,0,1,3,3v20a3,3,0,0,1,-3,3h-233a3,3,0,0,1,-3,-3v-20a3,3,0,0,1,3,-3z" stroke-width="1"></path><g id="node_text10" fill="black"><text id="kity_text_133" text-rendering="inherit" font-size="14" dy=".8em" y="180.5" x="1580.5">User story meet INVEST criteria</text></g></g><g id="minder_node3"><g id="node_expander1" display="none" style="cursor: pointer;"><path id="kity_path_246" fill="white" stroke="gray" d="M1839.5,31.5A6,6,0,1,1,1827.5,31.5A6,6,0,1,1,1839.5,31.5"></path><path id="kity_path_247" fill="none" stroke="gray"></path></g><path id="node_outline2" fill="none" stroke="none" d="M1844.5,20.5h87a5,5,0,0,1,5,5v12a5,5,0,0,1,-5,5h-87a5,5,0,0,1,-5,-5v-12a5,5,0,0,1,5,-5z"></path><g id="node_text2" fill="black"><text id="kity_text_117" text-rendering="inherit" font-size="12" dy=".8em" y="25.5" x="1849.5">Independent</text></g></g><g id="minder_node4"><g id="node_expander2" display="none" style="cursor: pointer;"><path id="kity_path_249" fill="white" stroke="gray" d="M1839.5,83.5A6,6,0,1,1,1827.5,83.5A6,6,0,1,1,1839.5,83.5"></path><path id="kity_path_250" fill="none" stroke="gray"></path></g><path id="node_outline3" fill="none" stroke="none" d="M1844.5,72.5h76a5,5,0,0,1,5,5v12a5,5,0,0,1,-5,5h-76a5,5,0,0,1,-5,-5v-12a5,5,0,0,1,5,-5z"></path><g id="node_text3" fill="black"><text id="kity_text_119" text-rendering="inherit" font-size="12" dy=".8em" y="77.5" x="1849.5">Negotiable</text></g></g><g id="minder_node5"><g id="node_expander3" display="none" style="cursor: pointer;"><path id="kity_path_252" fill="white" stroke="gray" d="M1839.5,135.5A6,6,0,1,1,1827.5,135.5A6,6,0,1,1,1839.5,135.5"></path><path id="kity_path_253" fill="none" stroke="gray"></path></g><path id="node_outline4" fill="none" stroke="none" d="M1844.5,124.5h63a5,5,0,0,1,5,5v12a5,5,0,0,1,-5,5h-63a5,5,0,0,1,-5,-5v-12a5,5,0,0,1,5,-5z"></path><g id="node_text4" fill="black"><text id="kity_text_121" text-rendering="inherit" font-size="12" dy=".8em" y="129.5" x="1849.5">Valuable</text></g></g><g id="minder_node6"><g id="node_expander4" display="none" style="cursor: pointer;"><path id="kity_path_255" fill="white" stroke="gray" d="M1839.5,187.5A6,6,0,1,1,1827.5,187.5A6,6,0,1,1,1839.5,187.5"></path><path id="kity_path_256" fill="none" stroke="gray"></path></g><path id="node_outline5" fill="none" stroke="none" d="M1844.5,176.5h65a5,5,0,0,1,5,5v12a5,5,0,0,1,-5,5h-65a5,5,0,0,1,-5,-5v-12a5,5,0,0,1,5,-5z"></path><g id="node_text5" fill="black"><text id="kity_text_123" text-rendering="inherit" font-size="12" dy=".8em" y="181.5" x="1849.5">Estimable</text></g></g><g id="minder_node7"><g id="node_expander7" style="cursor: pointer;"><path id="kity_path_264" fill="white" stroke="gray" d="M1839.5,265.5A6,6,0,1,1,1827.5,265.5A6,6,0,1,1,1839.5,265.5"></path><path id="kity_path_265" fill="none" stroke="gray" d="M1829,265.5L1838,265.5"></path></g><path id="node_outline8" fill="none" stroke="none" d="M1844.5,254.5h113a5,5,0,0,1,5,5v12a5,5,0,0,1,-5,5h-113a5,5,0,0,1,-5,-5v-12a5,5,0,0,1,5,-5z"></path><g id="node_text8" fill="black"><text id="kity_text_129" text-rendering="inherit" font-size="12" dy=".8em" y="259.5" x="1849.5">Size appropriately</text></g></g><g id="minder_node8"><g id="node_expander5" display="none" style="cursor: pointer;"><path id="kity_path_258" fill="white" stroke="gray" d="M2002.5,239.5A6,6,0,1,1,1990.5,239.5A6,6,0,1,1,2002.5,239.5"></path><path id="kity_path_259" fill="none" stroke="gray"></path></g><path id="node_outline6" fill="none" stroke="none" d="M2007.5,228.5h155a5,5,0,0,1,5,5v12a5,5,0,0,1,-5,5h-155a5,5,0,0,1,-5,-5v-12a5,5,0,0,1,5,-5z"></path><g id="node_text6" fill="black"><text id="kity_text_125" text-rendering="inherit" font-size="12" dy=".8em" y="233.5" x="2012.5">End-to-End: Virtual slicing</text></g></g><g id="minder_node9"><g id="node_expander6" display="none" style="cursor: pointer;"><path id="kity_path_261" fill="white" stroke="gray" d="M2002.5,291.5A6,6,0,1,1,1990.5,291.5A6,6,0,1,1,2002.5,291.5"></path><path id="kity_path_262" fill="none" stroke="gray"></path></g><path id="node_outline7" fill="none" stroke="none" d="M2007.5,280.5h68a5,5,0,0,1,5,5v12a5,5,0,0,1,-5,5h-68a5,5,0,0,1,-5,-5v-12a5,5,0,0,1,5,-5z"></path><g id="node_text7" fill="black"><text id="kity_text_127" text-rendering="inherit" font-size="12" dy=".8em" y="285.5" x="2012.5">1/4 sprint?</text></g></g><g id="minder_node10"><g id="node_expander8" display="none" style="cursor: pointer;"><path id="kity_path_267" fill="white" stroke="gray" d="M1839.5,343.5A6,6,0,1,1,1827.5,343.5A6,6,0,1,1,1839.5,343.5"></path><path id="kity_path_268" fill="none" stroke="gray"></path></g><path id="node_outline9" fill="none" stroke="none" d="M1844.5,332.5h58a5,5,0,0,1,5,5v12a5,5,0,0,1,-5,5h-58a5,5,0,0,1,-5,-5v-12a5,5,0,0,1,5,-5z"></path><g id="node_text9" fill="black"><text id="kity_text_131" text-rendering="inherit" font-size="12" dy=".8em" y="337.5" x="1849.5">Testable</text></g></g><g id="minder_node11"><g id="node_expander12" style="cursor: pointer;"><path id="kity_path_279" fill="white" stroke="gray" d="M1559.5,431.5A6,6,0,1,1,1547.5,431.5A6,6,0,1,1,1559.5,431.5"></path><path id="kity_path_280" fill="none" stroke="gray" d="M1549,431.5L1558,431.5"></path></g><path id="node_outline13" fill="rgb(238, 243, 246)" stroke="rgb(115, 161, 191)" d="M1563.5,418.5h123a3,3,0,0,1,3,3v20a3,3,0,0,1,-3,3h-123a3,3,0,0,1,-3,-3v-20a3,3,0,0,1,3,-3z" stroke-width="1"></path><g id="node_text13" fill="black"><text id="kity_text_139" text-rendering="inherit" font-size="14" dy=".8em" y="424.5" x="1580.5">Order/Priority</text></g></g><g id="minder_node12"><g id="node_expander10" display="none" style="cursor: pointer;"><path id="kity_path_273" fill="white" stroke="gray" d="M1729.5,405.5A6,6,0,1,1,1717.5,405.5A6,6,0,1,1,1729.5,405.5"></path><path id="kity_path_274" fill="none" stroke="gray"></path></g><path id="node_outline11" fill="none" stroke="none" d="M1734.5,394.5h58a5,5,0,0,1,5,5v12a5,5,0,0,1,-5,5h-58a5,5,0,0,1,-5,-5v-12a5,5,0,0,1,5,-5z"></path><g id="node_text11" fill="black"><text id="kity_text_135" text-rendering="inherit" font-size="12" dy=".8em" y="399.5" x="1739.5">Sortable</text></g></g><g id="minder_node13"><g id="node_expander11" display="none" style="cursor: pointer;"><path id="kity_path_276" fill="white" stroke="gray" d="M1729.5,457.5A6,6,0,1,1,1717.5,457.5A6,6,0,1,1,1729.5,457.5"></path><path id="kity_path_277" fill="none" stroke="gray"></path></g><path id="node_outline12" fill="none" stroke="none" d="M1734.5,446.5h270a5,5,0,0,1,5,5v12a5,5,0,0,1,-5,5h-270a5,5,0,0,1,-5,-5v-12a5,5,0,0,1,5,-5z"></path><g id="node_text12" fill="black"><text id="kity_text_137" text-rendering="inherit" font-size="12" dy=".8em" y="451.5" x="1739.5">Ready for MVP(Minimum Valueable Product)</text></g></g><g id="minder_node14"><g id="node_expander14" style="cursor: pointer;"><path id="kity_path_285" fill="white" stroke="gray" d="M1559.5,521.5A6,6,0,1,1,1547.5,521.5A6,6,0,1,1,1559.5,521.5"></path><path id="kity_path_286" fill="none" stroke="gray" d="M1549,521.5L1558,521.5"></path></g><path id="node_outline15" fill="rgb(238, 243, 246)" stroke="rgb(115, 161, 191)" d="M1563.5,508.5h131a3,3,0,0,1,3,3v20a3,3,0,0,1,-3,3h-131a3,3,0,0,1,-3,-3v-20a3,3,0,0,1,3,-3z" stroke-width="1"></path><g id="node_text15" fill="black"><text id="kity_text_143" text-rendering="inherit" font-size="14" dy=".8em" y="514.5" x="1580.5">Business Value</text></g></g><g id="minder_node15"><g id="node_expander13" display="none" style="cursor: pointer;"><path id="kity_path_282" fill="white" stroke="gray" d="M1737.5,521.5A6,6,0,1,1,1725.5,521.5A6,6,0,1,1,1737.5,521.5"></path><path id="kity_path_283" fill="none" stroke="gray"></path></g><path id="node_outline14" fill="none" stroke="none" d="M1742.5,510.5h363a5,5,0,0,1,5,5v12a5,5,0,0,1,-5,5h-363a5,5,0,0,1,-5,-5v-12a5,5,0,0,1,5,-5z"></path><g id="node_text14" fill="black"><text id="kity_text_141" text-rendering="inherit" font-size="12" dy=".8em" y="515.5" x="1747.5">Business value is clear enough and can be reprioritized by PO</text></g></g><g id="minder_node16"><g id="node_expander24" style="cursor: pointer;"><path id="kity_path_315" fill="white" stroke="gray" d="M1559.5,641.5A6,6,0,1,1,1547.5,641.5A6,6,0,1,1,1559.5,641.5"></path><path id="kity_path_316" fill="none" stroke="gray" d="M1549,641.5L1558,641.5"></path></g><path id="node_outline25" fill="rgb(238, 243, 246)" stroke="rgb(115, 161, 191)" d="M1563.5,628.5h66a3,3,0,0,1,3,3v20a3,3,0,0,1,-3,3h-66a3,3,0,0,1,-3,-3v-20a3,3,0,0,1,3,-3z" stroke-width="1"></path><g id="node_text25" fill="black"><text id="kity_text_163" text-rendering="inherit" font-size="14" dy=".8em" y="634.5" x="1580.5">Type</text></g></g><g id="minder_node17"><g id="node_expander15" display="none" style="cursor: pointer;"><path id="kity_path_288" fill="white" stroke="gray" d="M1672.5,586.5A6,6,0,1,1,1660.5,586.5A6,6,0,1,1,1672.5,586.5"></path><path id="kity_path_289" fill="none" stroke="gray"></path></g><path id="node_outline16" fill="none" stroke="none" d="M1677.5,575.5h65a5,5,0,0,1,5,5v12a5,5,0,0,1,-5,5h-65a5,5,0,0,1,-5,-5v-12a5,5,0,0,1,5,-5z"></path><g id="node_text16" fill="black"><text id="kity_text_145" text-rendering="inherit" font-size="12" dy=".8em" y="580.5" x="1682.5">User Story</text></g></g><g id="minder_node18"><g id="node_expander23" style="cursor: pointer;"><path id="kity_path_312" fill="white" stroke="gray" d="M1672.5,696.5A6,6,0,1,1,1660.5,696.5A6,6,0,1,1,1672.5,696.5"></path><path id="kity_path_313" fill="none" stroke="gray" d="M1662,696.5L1671,696.5"></path></g><path id="node_outline24" fill="none" stroke="none" d="M1677.5,685.5h85a5,5,0,0,1,5,5v12a5,5,0,0,1,-5,5h-85a5,5,0,0,1,-5,-5v-12a5,5,0,0,1,5,-5z"></path><g id="node_text24" fill="black"><text id="kity_text_161" text-rendering="inherit" font-size="12" dy=".8em" y="690.5" x="1682.5">Enabler Story</text></g></g><g id="minder_node19"><g id="node_expander16" display="none" style="cursor: pointer;"><path id="kity_path_291" fill="white" stroke="gray" d="M1807.5,638.5A6,6,0,1,1,1795.5,638.5A6,6,0,1,1,1807.5,638.5"></path><path id="kity_path_292" fill="none" stroke="gray"></path></g><path id="node_outline17" fill="none" stroke="none" d="M1812.5,627.5h55a5,5,0,0,1,5,5v12a5,5,0,0,1,-5,5h-55a5,5,0,0,1,-5,-5v-12a5,5,0,0,1,5,-5z"></path><g id="node_text17" fill="black"><text id="kity_text_147" text-rendering="inherit" font-size="12" dy=".8em" y="632.5" x="1817.5">Defects</text></g></g><g id="minder_node20"><g id="node_expander22" style="cursor: pointer;"><path id="kity_path_309" fill="white" stroke="gray" d="M1807.5,755.5A6,6,0,1,1,1795.5,755.5A6,6,0,1,1,1807.5,755.5"></path><path id="kity_path_310" fill="none" stroke="gray" d="M1797,755.5L1806,755.5"></path></g><path id="node_outline23" fill="none" stroke="none" d="M1812.5,744.5h40a5,5,0,0,1,5,5v12a5,5,0,0,1,-5,5h-40a5,5,0,0,1,-5,-5v-12a5,5,0,0,1,5,-5z"></path><g id="node_text23" fill="black"><text id="kity_text_159" text-rendering="inherit" font-size="12" dy=".8em" y="749.5" x="1817.5">Spike</text></g></g><g id="minder_node21"><g id="node_expander17" display="none" style="cursor: pointer;"><path id="kity_path_294" fill="white" stroke="gray" d="M1897.5,690.5A6,6,0,1,1,1885.5,690.5A6,6,0,1,1,1897.5,690.5"></path><path id="kity_path_295" fill="none" stroke="gray"></path></g><path id="node_outline18" fill="none" stroke="none" d="M1902.5,679.5h137a5,5,0,0,1,5,5v12a5,5,0,0,1,-5,5h-137a5,5,0,0,1,-5,-5v-12a5,5,0,0,1,5,-5z"></path><g id="node_text18" fill="black"><text id="kity_text_149" text-rendering="inherit" font-size="12" dy=".8em" y="684.5" x="1907.5">Techincal Work (POC)</text></g></g><g id="minder_node22"><g id="node_expander18" display="none" style="cursor: pointer;"><path id="kity_path_297" fill="white" stroke="gray" d="M1897.5,742.5A6,6,0,1,1,1885.5,742.5A6,6,0,1,1,1897.5,742.5"></path><path id="kity_path_298" fill="none" stroke="gray"></path></g><path id="node_outline19" fill="none" stroke="none" d="M1902.5,731.5h228a5,5,0,0,1,5,5v12a5,5,0,0,1,-5,5h-228a5,5,0,0,1,-5,-5v-12a5,5,0,0,1,5,-5z"></path><g id="node_text19" fill="black"><text id="kity_text_151" text-rendering="inherit" font-size="12" dy=".8em" y="736.5" x="1907.5">Knowledge Acquisition (Investigation)</text></g></g><g id="minder_node23"><g id="node_expander21" style="cursor: pointer;"><path id="kity_path_306" fill="white" stroke="gray" d="M1897.5,820.5A6,6,0,1,1,1885.5,820.5A6,6,0,1,1,1897.5,820.5"></path><path id="kity_path_307" fill="none" stroke="gray" d="M1887,820.5L1896,820.5"></path></g><path id="node_outline22" fill="none" stroke="none" d="M1902.5,809.5h219a5,5,0,0,1,5,5v12a5,5,0,0,1,-5,5h-219a5,5,0,0,1,-5,-5v-12a5,5,0,0,1,5,-5z"></path><g id="node_text22" fill="black"><text id="kity_text_157" text-rendering="inherit" font-size="12" dy=".8em" y="814.5" x="1907.5">Other (non-functional requirements)</text></g></g><g id="minder_node24"><g id="node_expander19" display="none" style="cursor: pointer;"><path id="kity_path_300" fill="white" stroke="gray" d="M2166.5,794.5A6,6,0,1,1,2154.5,794.5A6,6,0,1,1,2166.5,794.5"></path><path id="kity_path_301" fill="none" stroke="gray"></path></g><path id="node_outline20" fill="none" stroke="none" d="M2171.5,783.5h103a5,5,0,0,1,5,5v12a5,5,0,0,1,-5,5h-103a5,5,0,0,1,-5,-5v-12a5,5,0,0,1,5,-5z"></path><g id="node_text20" fill="black"><text id="kity_text_153" text-rendering="inherit" font-size="12" dy=".8em" y="788.5" x="2176.5">Test automation</text></g></g><g id="minder_node25"><g id="node_expander20" display="none" style="cursor: pointer;"><path id="kity_path_303" fill="white" stroke="gray" d="M2166.5,846.5A6,6,0,1,1,2154.5,846.5A6,6,0,1,1,2166.5,846.5"></path><path id="kity_path_304" fill="none" stroke="gray"></path></g><path id="node_outline21" fill="none" stroke="none" d="M2171.5,835.5h128a5,5,0,0,1,5,5v12a5,5,0,0,1,-5,5h-128a5,5,0,0,1,-5,-5v-12a5,5,0,0,1,5,-5z"></path><g id="node_text21" fill="black"><text id="kity_text_155" text-rendering="inherit" font-size="12" dy=".8em" y="840.5" x="2176.5">Tools for productivity</text></g></g><g id="minder_node26"><g id="node_expander33" style="cursor: pointer;"><path id="kity_path_342" fill="white" stroke="gray" d="M1052.5,215.5A6,6,0,1,1,1040.5,215.5A6,6,0,1,1,1052.5,215.5"></path><path id="kity_path_343" fill="none" stroke="gray" d="M1042,215.5L1051,215.5"></path></g><path id="node_outline34" fill="rgb(238, 243, 246)" stroke="rgb(115, 161, 191)" d="M926.5,202.5h110a3,3,0,0,1,3,3v20a3,3,0,0,1,-3,3h-110a3,3,0,0,1,-3,-3v-20a3,3,0,0,1,3,-3z" stroke-width="1"></path><g id="node_text34" fill="black"><text id="kity_text_181" text-rendering="inherit" font-size="14" dy=".8em" y="208.5" x="943.5">Description</text></g></g><g id="minder_node27"><g id="node_expander32" style="cursor: pointer;"><path id="kity_path_339" fill="white" stroke="gray" d="M895.5,215.5A6,6,0,1,1,883.5,215.5A6,6,0,1,1,895.5,215.5"></path><path id="kity_path_340" fill="none" stroke="gray" d="M885,215.5L894,215.5"></path></g><path id="node_outline33" fill="none" stroke="none" d="M743.5,204.5h135a5,5,0,0,1,5,5v12a5,5,0,0,1,-5,5h-135a5,5,0,0,1,-5,-5v-12a5,5,0,0,1,5,-5z"></path><g id="node_text33" fill="black"><text id="kity_text_179" text-rendering="inherit" font-size="12" dy=".8em" y="209.5" x="748.5">4 ways to present PBIs</text></g></g><g id="minder_node28"><g id="node_expander25" display="none" style="cursor: pointer;"><path id="kity_path_318" fill="white" stroke="gray" d="M710.5,85.5A6,6,0,1,1,698.5,85.5A6,6,0,1,1,710.5,85.5"></path><path id="kity_path_319" fill="none" stroke="gray"></path></g><path id="node_outline26" fill="none" stroke="none" d="M638.5,74.5h55a5,5,0,0,1,5,5v12a5,5,0,0,1,-5,5h-55a5,5,0,0,1,-5,-5v-12a5,5,0,0,1,5,-5z"></path><g id="node_text26" fill="black"><text id="kity_text_165" text-rendering="inherit" font-size="12" dy=".8em" y="79.5" x="643.5">Feature</text></g></g><g id="minder_node29"><g id="node_expander29" style="cursor: pointer;"><path id="kity_path_330" fill="white" stroke="gray" d="M710.5,189.5A6,6,0,1,1,698.5,189.5A6,6,0,1,1,710.5,189.5"></path><path id="kity_path_331" fill="none" stroke="gray" d="M700,189.5L709,189.5"></path></g><path id="node_outline30" fill="none" stroke="none" d="M628.5,178.5h65a5,5,0,0,1,5,5v12a5,5,0,0,1,-5,5h-65a5,5,0,0,1,-5,-5v-12a5,5,0,0,1,5,-5z"></path><g id="node_text30" fill="black"><text id="kity_text_173" text-rendering="inherit" font-size="12" dy=".8em" y="183.5" x="633.5">User Story</text></g></g><g id="minder_node30"><g id="node_expander26" display="none" style="cursor: pointer;"><path id="kity_path_321" fill="white" stroke="gray" d="M595.5,137.5A6,6,0,1,1,583.5,137.5A6,6,0,1,1,595.5,137.5"></path><path id="kity_path_322" fill="none" stroke="gray"></path></g><path id="node_outline27" fill="none" stroke="none" d="M473.5,126.5h105a5,5,0,0,1,5,5v12a5,5,0,0,1,-5,5h-105a5,5,0,0,1,-5,-5v-12a5,5,0,0,1,5,-5z"></path><g id="node_text27" fill="black"><text id="kity_text_167" text-rendering="inherit" font-size="12" dy=".8em" y="131.5" x="478.5">Who: As a [Role]</text></g></g><g id="minder_node31"><g id="node_expander27" display="none" style="cursor: pointer;"><path id="kity_path_324" fill="white" stroke="gray" d="M595.5,189.5A6,6,0,1,1,583.5,189.5A6,6,0,1,1,595.5,189.5"></path><path id="kity_path_325" fill="none" stroke="gray"></path></g><path id="node_outline28" fill="none" stroke="none" d="M426.5,178.5h152a5,5,0,0,1,5,5v12a5,5,0,0,1,-5,5h-152a5,5,0,0,1,-5,-5v-12a5,5,0,0,1,5,-5z"></path><g id="node_text28" fill="black"><text id="kity_text_169" text-rendering="inherit" font-size="12" dy=".8em" y="183.5" x="431.5">What: I want to [Activity]</text></g></g><g id="minder_node32"><g id="node_expander28" display="none" style="cursor: pointer;"><path id="kity_path_327" fill="white" stroke="gray" d="M595.5,241.5A6,6,0,1,1,583.5,241.5A6,6,0,1,1,595.5,241.5"></path><path id="kity_path_328" fill="none" stroke="gray"></path></g><path id="node_outline29" fill="none" stroke="none" d="M446.5,230.5h132a5,5,0,0,1,5,5v12a5,5,0,0,1,-5,5h-132a5,5,0,0,1,-5,-5v-12a5,5,0,0,1,5,-5z"></path><g id="node_text29" fill="black"><text id="kity_text_171" text-rendering="inherit" font-size="12" dy=".8em" y="235.5" x="451.5">Why: so that [Benefit]</text></g></g><g id="minder_node33"><g id="node_expander30" display="none" style="cursor: pointer;"><path id="kity_path_333" fill="white" stroke="gray" d="M710.5,293.5A6,6,0,1,1,698.5,293.5A6,6,0,1,1,710.5,293.5"></path><path id="kity_path_334" fill="none" stroke="gray"></path></g><path id="node_outline31" fill="none" stroke="none" d="M604.5,282.5h89a5,5,0,0,1,5,5v12a5,5,0,0,1,-5,5h-89a5,5,0,0,1,-5,-5v-12a5,5,0,0,1,5,-5z"></path><g id="node_text31" fill="black"><text id="kity_text_175" text-rendering="inherit" font-size="12" dy=".8em" y="287.5" x="609.5">Requirements</text></g></g><g id="minder_node34"><g id="node_expander31" display="none" style="cursor: pointer;"><path id="kity_path_336" fill="white" stroke="gray" d="M710.5,345.5A6,6,0,1,1,698.5,345.5A6,6,0,1,1,710.5,345.5"></path><path id="kity_path_337" fill="none" stroke="gray"></path></g><path id="node_outline32" fill="none" stroke="none" d="M625.5,334.5h68a5,5,0,0,1,5,5v12a5,5,0,0,1,-5,5h-68a5,5,0,0,1,-5,-5v-12a5,5,0,0,1,5,-5z"></path><g id="node_text32" fill="black"><text id="kity_text_177" text-rendering="inherit" font-size="12" dy=".8em" y="339.5" x="630.5">Use Cases</text></g></g><g id="minder_node35"><g id="node_expander38" style="cursor: pointer;"><path id="kity_path_357" fill="white" stroke="gray" d="M1052.5,433.5A6,6,0,1,1,1040.5,433.5A6,6,0,1,1,1052.5,433.5"></path><path id="kity_path_358" fill="none" stroke="gray" d="M1042,433.5L1051,433.5"></path></g><path id="node_outline39" fill="rgb(238, 243, 246)" stroke="rgb(115, 161, 191)" d="M924.5,420.5h112a3,3,0,0,1,3,3v20a3,3,0,0,1,-3,3h-112a3,3,0,0,1,-3,-3v-20a3,3,0,0,1,3,-3z" stroke-width="1"></path><g id="node_text39" fill="black"><text id="kity_text_191" text-rendering="inherit" font-size="14" dy=".8em" y="426.5" x="941.5">Understand</text></g></g><g id="minder_node36"><g id="node_expander35" style="cursor: pointer;"><path id="kity_path_348" fill="white" stroke="gray" d="M893.5,407.5A6,6,0,1,1,881.5,407.5A6,6,0,1,1,893.5,407.5"></path><path id="kity_path_349" fill="none" stroke="gray" d="M883,407.5L892,407.5"></path></g><path id="node_outline36" fill="none" stroke="none" d="M618.5,396.5h258a5,5,0,0,1,5,5v12a5,5,0,0,1,-5,5h-258a5,5,0,0,1,-5,-5v-12a5,5,0,0,1,5,-5z"></path><g id="node_text36" fill="black"><text id="kity_text_185" text-rendering="inherit" font-size="12" dy=".8em" y="401.5" x="623.5">Implementation &amp; Task break down ready?</text></g></g><g id="minder_node37"><g id="node_expander34" display="none" style="cursor: pointer;"><path id="kity_path_345" fill="white" stroke="gray" d="M585.5,407.5A6,6,0,1,1,573.5,407.5A6,6,0,1,1,585.5,407.5"></path><path id="kity_path_346" fill="none" stroke="gray"></path></g><path id="node_outline35" fill="none" stroke="none" d="M148.5,396.5h420a5,5,0,0,1,5,5v12a5,5,0,0,1,-5,5h-420a5,5,0,0,1,-5,-5v-12a5,5,0,0,1,5,-5z"></path><g id="node_text35" fill="black"><text id="kity_text_183" text-rendering="inherit" font-size="12" dy=".8em" y="401.5" x="153.5">What should be done is clear enough and can be understood by team</text></g></g><g id="minder_node38"><g id="node_expander37" style="cursor: pointer;"><path id="kity_path_354" fill="white" stroke="gray" d="M893.5,459.5A6,6,0,1,1,881.5,459.5A6,6,0,1,1,893.5,459.5"></path><path id="kity_path_355" fill="none" stroke="gray" d="M883,459.5L892,459.5"></path></g><path id="node_outline38" fill="none" stroke="none" d="M716.5,448.5h160a5,5,0,0,1,5,5v12a5,5,0,0,1,-5,5h-160a5,5,0,0,1,-5,-5v-12a5,5,0,0,1,5,-5z"></path><g id="node_text38" fill="black"><text id="kity_text_189" text-rendering="inherit" font-size="12" dy=".8em" y="453.5" x="721.5">Enabling spec is required?</text></g></g><g id="minder_node39"><g id="node_expander36" display="none" style="cursor: pointer;"><path id="kity_path_351" fill="white" stroke="gray" d="M683.5,459.5A6,6,0,1,1,671.5,459.5A6,6,0,1,1,683.5,459.5"></path><path id="kity_path_352" fill="none" stroke="gray"></path></g><path id="node_outline37" fill="none" stroke="none" d="M25.5,448.5h641a5,5,0,0,1,5,5v12a5,5,0,0,1,-5,5h-641a5,5,0,0,1,-5,-5v-12a5,5,0,0,1,5,-5z"></path><g id="node_text37" fill="black"><text id="kity_text_187" text-rendering="inherit" font-size="12" dy=".8em" y="453.5" x="30.5">[Complex PBIs need a Enabling Spec](http://www.leanagiletraining.com/key-problems/agile-specifications/)</text></g></g><g id="minder_node40"><g id="node_expander40" style="cursor: pointer;"><path id="kity_path_363" fill="white" stroke="gray" d="M1052.5,523.5A6,6,0,1,1,1040.5,523.5A6,6,0,1,1,1052.5,523.5"></path><path id="kity_path_364" fill="none" stroke="gray" d="M1042,523.5L1051,523.5"></path></g><path id="node_outline41" fill="rgb(238, 243, 246)" stroke="rgb(115, 161, 191)" d="M870.5,510.5h166a3,3,0,0,1,3,3v20a3,3,0,0,1,-3,3h-166a3,3,0,0,1,-3,-3v-20a3,3,0,0,1,3,-3z" stroke-width="1"></path><g id="node_text41" fill="black"><text id="kity_text_195" text-rendering="inherit" font-size="14" dy=".8em" y="516.5" x="887.5">Risk &amp; Dependency</text></g></g><g id="minder_node41"><g id="node_expander39" display="none" style="cursor: pointer;"><path id="kity_path_360" fill="white" stroke="gray" d="M839.5,523.5A6,6,0,1,1,827.5,523.5A6,6,0,1,1,839.5,523.5"></path><path id="kity_path_361" fill="none" stroke="gray"></path></g><path id="node_outline40" fill="none" stroke="none" d="M619.5,512.5h203a5,5,0,0,1,5,5v12a5,5,0,0,1,-5,5h-203a5,5,0,0,1,-5,-5v-12a5,5,0,0,1,5,-5z"></path><g id="node_text40" fill="black"><text id="kity_text_193" text-rendering="inherit" font-size="12" dy=".8em" y="517.5" x="624.5">Free from external dependencies</text></g></g><g id="minder_node42"><g id="node_expander43" style="cursor: pointer;"><path id="kity_path_372" fill="white" stroke="gray" d="M1052.5,613.5A6,6,0,1,1,1040.5,613.5A6,6,0,1,1,1052.5,613.5"></path><path id="kity_path_373" fill="none" stroke="gray" d="M1042,613.5L1051,613.5"></path></g><path id="node_outline44" fill="rgb(238, 243, 246)" stroke="rgb(115, 161, 191)" d="M945.5,600.5h91a3,3,0,0,1,3,3v20a3,3,0,0,1,-3,3h-91a3,3,0,0,1,-3,-3v-20a3,3,0,0,1,3,-3z" stroke-width="1"></path><g id="node_text44" fill="black"><text id="kity_text_201" text-rendering="inherit" font-size="14" dy=".8em" y="606.5" x="962.5">Estimate</text></g></g><g id="minder_node43"><g id="node_expander41" display="none" style="cursor: pointer;"><path id="kity_path_366" fill="white" stroke="gray" d="M914.5,587.5A6,6,0,1,1,902.5,587.5A6,6,0,1,1,914.5,587.5"></path><path id="kity_path_367" fill="none" stroke="gray"></path></g><path id="node_outline42" fill="none" stroke="none" d="M783.5,576.5h114a5,5,0,0,1,5,5v12a5,5,0,0,1,-5,5h-114a5,5,0,0,1,-5,-5v-12a5,5,0,0,1,5,-5z"></path><g id="node_text42" fill="black"><text id="kity_text_197" text-rendering="inherit" font-size="12" dy=".8em" y="581.5" x="788.5">Provided by team</text></g></g><g id="minder_node44"><g id="node_expander42" display="none" style="cursor: pointer;"><path id="kity_path_369" fill="white" stroke="gray" d="M914.5,639.5A6,6,0,1,1,902.5,639.5A6,6,0,1,1,914.5,639.5"></path><path id="kity_path_370" fill="none" stroke="gray"></path></g><path id="node_outline43" fill="none" stroke="none" d="M715.5,628.5h182a5,5,0,0,1,5,5v12a5,5,0,0,1,-5,5h-182a5,5,0,0,1,-5,-5v-12a5,5,0,0,1,5,-5z"></path><g id="node_text43" fill="black"><text id="kity_text_199" text-rendering="inherit" font-size="12" dy=".8em" y="633.5" x="720.5">No unit, which are story points</text></g></g></g></g></svg>